<?xml version="1.0" encoding="UTF-8" standalone="no"?>
<!-- Created with Inkscape (http://www.inkscape.org/) -->

<svg
   xmlns:dc="http://purl.org/dc/elements/1.1/"
   xmlns:cc="http://creativecommons.org/ns#"
   xmlns:rdf="http://www.w3.org/1999/02/22-rdf-syntax-ns#"
   xmlns:svg="http://www.w3.org/2000/svg"
   xmlns="http://www.w3.org/2000/svg"
   xmlns:sodipodi="http://sodipodi.sourceforge.net/DTD/sodipodi-0.dtd"
   xmlns:inkscape="http://www.inkscape.org/namespaces/inkscape"
   width="210mm"
   height="297mm"
   viewBox="0 0 744.09448819 1052.3622047"
   id="svg5004"
   version="1.1"
   inkscape:version="0.91 r"
   sodipodi:docname="instagram.svg">
  <defs
     id="defs5006" />
  <sodipodi:namedview
     id="base"
     pagecolor="#ffffff"
     bordercolor="#666666"
     borderopacity="1.0"
     inkscape:pageopacity="0.0"
     inkscape:pageshadow="2"
     inkscape:zoom="0.57754569"
     inkscape:cx="394.28571"
     inkscape:cy="504.28571"
     inkscape:document-units="px"
     inkscape:current-layer="layer1"
     showgrid="false"
     inkscape:window-width="1309"
     inkscape:window-height="747"
     inkscape:window-x="57"
     inkscape:window-y="21"
     inkscape:window-maximized="1" />
  <metadata
     id="metadata5009">
    <rdf:RDF>
      <cc:Work
         rdf:about="">
        <dc:format>image/svg+xml</dc:format>
        <dc:type
           rdf:resource="http://purl.org/dc/dcmitype/StillImage" />
        <dc:title></dc:title>
      </cc:Work>
    </rdf:RDF>
  </metadata>
  <g
     inkscape:label="Layer 1"
     inkscape:groupmode="layer"
     id="layer1">
    <g
       id="g4398"
       transform="matrix(0.19398814,0,0,0.19398814,239.71536,137.20119)">
      <g
         id="g4358">
        <path
           id="path4360"
           d="m 12.501,0 72.393,0 c 6.875,0 12.5,5.09 12.5,12.5 l 0,72.395 c 0,7.41 -5.625,12.5 -12.5,12.5 l -72.393,0 C 5.624,97.395 0,92.305 0,84.895 L 0,12.5 C 0,5.09 5.624,0 12.501,0 l 0,0 z m 58.447,10.821 c -2.412,0 -4.383,1.972 -4.383,4.385 l 0,10.495 c 0,2.412 1.971,4.385 4.383,4.385 l 11.008,0 c 2.412,0 4.385,-1.973 4.385,-4.385 l 0,-10.495 c 0,-2.413 -1.973,-4.385 -4.385,-4.385 l -11.008,0 0,0 z m 15.439,30.367 -8.572,0 c 0.811,2.648 1.25,5.453 1.25,8.355 0,16.2 -13.556,29.332 -30.275,29.332 -16.718,0 -30.272,-13.132 -30.272,-29.332 0,-2.904 0.438,-5.708 1.25,-8.355 l -8.945,0 0,41.141 c 0,2.129 1.742,3.872 3.872,3.872 l 67.822,0 c 2.13,0 3.872,-1.742 3.872,-3.872 l 0,-41.141 -0.002,0 z M 48.789,29.533 c -10.802,0 -19.56,8.485 -19.56,18.953 0,10.468 8.758,18.953 19.56,18.953 10.803,0 19.562,-8.485 19.562,-18.953 0,-10.468 -8.758,-18.953 -19.562,-18.953 z"
           inkscape:connector-curvature="0"
           style="fill:#88d400;fill-opacity:1" />
      </g>
      <g
         id="g4362" />
      <g
         id="g4364" />
      <g
         id="g4366" />
      <g
         id="g4368" />
      <g
         id="g4370" />
      <g
         id="g4372" />
      <g
         id="g4374" />
      <g
         id="g4376" />
      <g
         id="g4378" />
      <g
         id="g4380" />
      <g
         id="g4382" />
      <g
         id="g4384" />
      <g
         id="g4386" />
      <g
         id="g4388" />
      <g
         id="g4390" />
    </g>
  </g>
</svg>
