<?xml version="1.0" encoding="UTF-8" standalone="no"?>
<!-- Created with Inkscape (http://www.inkscape.org/) -->

<svg
   xmlns:dc="http://purl.org/dc/elements/1.1/"
   xmlns:cc="http://creativecommons.org/ns#"
   xmlns:rdf="http://www.w3.org/1999/02/22-rdf-syntax-ns#"
   xmlns:svg="http://www.w3.org/2000/svg"
   xmlns="http://www.w3.org/2000/svg"
   xmlns:sodipodi="http://sodipodi.sourceforge.net/DTD/sodipodi-0.dtd"
   xmlns:inkscape="http://www.inkscape.org/namespaces/inkscape"
   width="210mm"
   height="297mm"
   viewBox="0 0 744.09448819 1052.3622047"
   id="svg5004"
   version="1.1"
   inkscape:version="0.91 r"
   sodipodi:docname="tumblr.svg">
  <defs
     id="defs5006" />
  <sodipodi:namedview
     id="base"
     pagecolor="#ffffff"
     bordercolor="#666666"
     borderopacity="1.0"
     inkscape:pageopacity="0.0"
     inkscape:pageshadow="2"
     inkscape:zoom="0.57754569"
     inkscape:cx="394.28571"
     inkscape:cy="504.28571"
     inkscape:document-units="px"
     inkscape:current-layer="layer1"
     showgrid="false"
     inkscape:window-width="1309"
     inkscape:window-height="747"
     inkscape:window-x="57"
     inkscape:window-y="21"
     inkscape:window-maximized="1" />
  <metadata
     id="metadata5009">
    <rdf:RDF>
      <cc:Work
         rdf:about="">
        <dc:format>image/svg+xml</dc:format>
        <dc:type
           rdf:resource="http://purl.org/dc/dcmitype/StillImage" />
        <dc:title></dc:title>
      </cc:Work>
    </rdf:RDF>
  </metadata>
  <g
     inkscape:label="Layer 1"
     inkscape:groupmode="layer"
     id="layer1">
    <g
       id="g4459"
       transform="matrix(0.03787256,0,0,0.03787256,269.80624,136.99042)"
       style="fill:#88d400;fill-opacity:1">
      <g
         id="g4418"
         style="fill:#88d400;fill-opacity:1">
        <g
           id="post-tumblr"
           style="fill:#88d400;fill-opacity:1">
          <path
             id="path4421"
             d="M 459,0 51,0 C 22.95,0 0,22.95 0,51 l 0,408 c 0,28.05 22.95,51 51,51 l 408,0 c 28.05,0 51,-22.95 51,-51 L 510,51 C 510,22.95 487.05,0 459,0 Z m -102,229.5 -76.5,0 c 0,0 0,96.9 0,99.45 0,17.85 2.55,28.05 28.05,28.05 22.95,0 48.45,0 48.45,0 l 0,76.5 c 0,0 -25.5,2.55 -53.55,2.55 -66.3,0 -99.45,-40.8 -99.45,-86.7 0,-30.6 0,-119.85 0,-119.85 l -51,0 0,-71.4 c 61.2,-5.1 66.3,-51 71.4,-81.6 l 56.1,0 0,76.5 76.5,0 0,76.5 z"
             inkscape:connector-curvature="0"
             style="fill:#88d400;fill-opacity:1" />
        </g>
      </g>
      <g
         id="g4423"
         style="fill:#88d400;fill-opacity:1" />
      <g
         id="g4425"
         style="fill:#88d400;fill-opacity:1" />
      <g
         id="g4427"
         style="fill:#88d400;fill-opacity:1" />
      <g
         id="g4429"
         style="fill:#88d400;fill-opacity:1" />
      <g
         id="g4431"
         style="fill:#88d400;fill-opacity:1" />
      <g
         id="g4433"
         style="fill:#88d400;fill-opacity:1" />
      <g
         id="g4435"
         style="fill:#88d400;fill-opacity:1" />
      <g
         id="g4437"
         style="fill:#88d400;fill-opacity:1" />
      <g
         id="g4439"
         style="fill:#88d400;fill-opacity:1" />
      <g
         id="g4441"
         style="fill:#88d400;fill-opacity:1" />
      <g
         id="g4443"
         style="fill:#88d400;fill-opacity:1" />
      <g
         id="g4445"
         style="fill:#88d400;fill-opacity:1" />
      <g
         id="g4447"
         style="fill:#88d400;fill-opacity:1" />
      <g
         id="g4449"
         style="fill:#88d400;fill-opacity:1" />
      <g
         id="g4451"
         style="fill:#88d400;fill-opacity:1" />
    </g>
  </g>
</svg>
